<?xml version="1.0" encoding="UTF-8"?>
<svg width="20px" height="20px" viewBox="0 0 20 20" version="1.1" xmlns="http://www.w3.org/2000/svg" xmlns:xlink="http://www.w3.org/1999/xlink">
    <title>error_FILL0_wght400_GRAD0_opsz48</title>
    <g id="Desktop-UI" stroke="none" stroke-width="1" fill="none" fill-rule="evenodd">
        <g id="modal-contact-us-global-error" transform="translate(-964.000000, -750.000000)" fill="#FFFFFF" fill-rule="nonzero">
            <g id="modal-window" transform="translate(526.000000, 215.000000)">
                <g id="confirm-data-import-btn" transform="translate(241.000000, 520.000000)">
                    <g id="Group-6-Copy" transform="translate(23.000000, 13.000000)">
                        <g id="error_FILL0_wght400_GRAD0_opsz48" transform="translate(174.000000, 2.000000)">
                            <path d="M9.99955,15 C10.2331833,15 10.4291667,14.9209833 10.5875,14.76295 C10.7458333,14.6049 10.825,14.4090667 10.825,14.17545 C10.825,13.9418167 10.7459833,13.7458333 10.58795,13.5875 C10.4299,13.4291667 10.2340667,13.35 10.00045,13.35 C9.76681667,13.35 9.57083333,13.4290167 9.4125,13.58705 C9.25416667,13.7451 9.175,13.9409333 9.175,14.17455 C9.175,14.4081833 9.25401667,14.6041667 9.41205,14.7625 C9.5701,14.9208333 9.76593333,15 9.99955,15 L9.99955,15 Z M9.325,11.175 L10.825,11.175 L10.825,4.85 L9.325,4.85 L9.325,11.175 Z M10.00665,20 C8.62775,20 7.33191667,19.7375 6.11915,19.2125 C4.90638333,18.6875 3.84583333,17.9708333 2.9375,17.0625 C2.02916667,16.1541667 1.3125,15.0929917 0.7875,13.878975 C0.2625,12.664975 0,11.3678167 0,9.9875 C0,8.60718333 0.2625,7.310025 0.7875,6.096025 C1.3125,4.88200833 2.02916667,3.825 2.9375,2.925 C3.84583333,2.025 4.90700833,1.3125 6.121025,0.7875 C7.335025,0.2625 8.63218333,0 10.0125,0 C11.3928167,0 12.689975,0.2625 13.903975,0.7875 C15.1179917,1.3125 16.175,2.025 17.075,2.925 C17.975,3.825 18.6875,4.88333333 19.2125,6.1 C19.7375,7.31666667 20,8.61445 20,9.99335 C20,11.37225 19.7375,12.6680833 19.2125,13.88085 C18.6875,15.0936167 17.975,16.1526333 17.075,17.0579 C16.175,17.9631667 15.1166667,18.6798333 13.9,19.2079 C12.6833333,19.7359667 11.38555,20 10.00665,20 Z M10.0125,18.5 C12.3708333,18.5 14.375,17.6708333 16.025,16.0125 C17.675,14.3541667 18.5,12.3458333 18.5,9.9875 C18.5,7.62916667 17.6765667,5.625 16.0297,3.975 C14.3828167,2.325 12.3729167,1.5 10,1.5 C7.65,1.5 5.64583333,2.32343333 3.9875,3.9703 C2.32916667,5.61718333 1.5,7.62708333 1.5,10 C1.5,12.35 2.32916667,14.3541667 3.9875,16.0125 C5.64583333,17.6708333 7.65416667,18.5 10.0125,18.5 Z" id="Shape"></path>
                        </g>
                    </g>
                </g>
            </g>
        </g>
    </g>
</svg>