<?xml version="1.0" encoding="UTF-8"?>
<svg width="20px" height="20px" viewBox="0 0 20 20" version="1.1" xmlns="http://www.w3.org/2000/svg"
>
    <title>annotation-icon</title>
    <g id="Desktop-UI" stroke="none" stroke-width="1" fill="none" fill-rule="evenodd">
        <g id="Select-data-sources-on-app-launch" transform="translate(-558.000000, -481.000000)">
            <g id="modal-window" transform="translate(526.000000, 305.000000)">
                <g id="Import-annotations-row" transform="translate(32.000000, 168.000000)">
                    <g id="annotation-icon" transform="translate(0.000000, 8.000000)">
                        <path d="M3,20 C2.16666667,20 1.45833333,19.7083333 0.875,19.125 C0.291666667,18.5416667 0,17.8333333 0,17 C0,16.3 0.2125,15.6833333 0.6375,15.15 C1.0625,14.6166667 1.6,14.2666667 2.25,14.1 L2.25,5.9 C1.6,5.73333333 1.0625,5.38333333 0.6375,4.85 C0.2125,4.31666667 0,3.7 0,3 C0,2.16666667 0.291666667,1.45833333 0.875,0.875 C1.45833333,0.291666667 2.16666667,0 3,0 C3.7,0 4.31666667,0.2125 4.85,0.6375 C5.38333333,1.0625 5.73333333,1.6 5.9,2.25 L14.1,2.25 C14.2666667,1.6 14.6166667,1.0625 15.15,0.6375 C15.6833333,0.2125 16.3,0 17,0 C17.8333333,0 18.5416667,0.291666667 19.125,0.875 C19.7083333,1.45833333 20,2.16666667 20,3 C20,3.7 19.7875,4.31666667 19.3625,4.85 C18.9375,5.38333333 18.4,5.73333333 17.75,5.9 L17.75,14.1 C18.4,14.2666667 18.9375,14.6166667 19.3625,15.15 C19.7875,15.6833333 20,16.3 20,17 C20,17.8333333 19.7083333,18.5416667 19.125,19.125 C18.5416667,19.7083333 17.8333333,20 17,20 C16.3,20 15.6833333,19.7875 15.15,19.3625 C14.6166667,18.9375 14.2666667,18.4 14.1,17.75 L5.9,17.75 C5.73333333,18.4 5.38333333,18.9375 4.85,19.3625 C4.31666667,19.7875 3.7,20 3,20 Z M3,4.5 C3.43333333,4.5 3.79166667,4.35416667 4.075,4.0625 C4.35833333,3.77083333 4.5,3.41666667 4.5,3 C4.5,2.56666667 4.35833333,2.20833333 4.075,1.925 C3.79166667,1.64166667 3.43333333,1.5 3,1.5 C2.58333333,1.5 2.22916667,1.64166667 1.9375,1.925 C1.64583333,2.20833333 1.5,2.56666667 1.5,3 C1.5,3.41666667 1.64583333,3.77083333 1.9375,4.0625 C2.22916667,4.35416667 2.58333333,4.5 3,4.5 Z M17,4.5 C17.4333333,4.5 17.7916667,4.35416667 18.075,4.0625 C18.3583333,3.77083333 18.5,3.41666667 18.5,3 C18.5,2.56666667 18.3583333,2.20833333 18.075,1.925 C17.7916667,1.64166667 17.4333333,1.5 17,1.5 C16.5833333,1.5 16.2291667,1.64166667 15.9375,1.925 C15.6458333,2.20833333 15.5,2.56666667 15.5,3 C15.5,3.41666667 15.6458333,3.77083333 15.9375,4.0625 C16.2291667,4.35416667 16.5833333,4.5 17,4.5 Z M5.9,16.25 L14.1,16.25 C14.2333333,15.7166667 14.4916667,15.2583333 14.875,14.875 C15.2583333,14.4916667 15.7166667,14.2333333 16.25,14.1 L16.25,5.9 C15.7166667,5.76666667 15.2583333,5.50833333 14.875,5.125 C14.4916667,4.74166667 14.2333333,4.28333333 14.1,3.75 L5.9,3.75 C5.76666667,4.28333333 5.50833333,4.74166667 5.125,5.125 C4.74166667,5.50833333 4.28333333,5.76666667 3.75,5.9 L3.75,14.1 C4.28333333,14.2333333 4.74166667,14.4916667 5.125,14.875 C5.50833333,15.2583333 5.76666667,15.7166667 5.9,16.25 Z M17,18.5 C17.4333333,18.5 17.7916667,18.3541667 18.075,18.0625 C18.3583333,17.7708333 18.5,17.4166667 18.5,17 C18.5,16.5666667 18.3583333,16.2083333 18.075,15.925 C17.7916667,15.6416667 17.4333333,15.5 17,15.5 C16.5833333,15.5 16.2291667,15.6416667 15.9375,15.925 C15.6458333,16.2083333 15.5,16.5666667 15.5,17 C15.5,17.4166667 15.6458333,17.7708333 15.9375,18.0625 C16.2291667,18.3541667 16.5833333,18.5 17,18.5 Z M3,18.5 C3.43333333,18.5 3.79166667,18.3541667 4.075,18.0625 C4.35833333,17.7708333 4.5,17.4166667 4.5,17 C4.5,16.5666667 4.35833333,16.2083333 4.075,15.925 C3.79166667,15.6416667 3.43333333,15.5 3,15.5 C2.58333333,15.5 2.22916667,15.6416667 1.9375,15.925 C1.64583333,16.2083333 1.5,16.5666667 1.5,17 C1.5,17.4166667 1.64583333,17.7708333 1.9375,18.0625 C2.22916667,18.3541667 2.58333333,18.5 3,18.5 Z"
                              id="Shape" fill="#FFFFFF" fill-rule="nonzero"></path>
                        <rect id="Rectangle" x="0" y="0" width="20" height="20"></rect>
                    </g>
                </g>
            </g>
        </g>
    </g>
</svg>