<?xml version="1.0" encoding="UTF-8"?>
<svg width="20px" height="20px" viewBox="0 0 20 20" version="1.1" xmlns="http://www.w3.org/2000/svg" xmlns:xlink="http://www.w3.org/1999/xlink">
    <title>image-icon</title>
    <g id="Desktop-UI" stroke="none" stroke-width="1" fill="none" fill-rule="evenodd">
        <g id="modal-contact-us" transform="translate(-558.000000, -317.000000)">
            <g id="modal-window" transform="translate(526.000000, 215.000000)">
                <g id="image-icon" transform="translate(32.000000, 102.000000)">
                    <rect id="Rectangle" x="0" y="0" width="20" height="20"></rect>
                    <path d="M10,9.375 C8.625,9.375 7.5,8.9375 6.625,8.0625 C5.75,7.1875 5.3125,6.0625 5.3125,4.6875 C5.3125,3.3125 5.75,2.1875 6.625,1.3125 C7.5,0.4375 8.625,0 10,0 C11.375,0 12.5,0.4375 13.375,1.3125 C14.25,2.1875 14.6875,3.3125 14.6875,4.6875 C14.6875,6.0625 14.25,7.1875 13.375,8.0625 C12.5,8.9375 11.375,9.375 10,9.375 L10,9.375 Z M0,19.40625 L0,16.46875 C0,15.6770833 0.197916667,15 0.59375,14.4375 C0.989583333,13.875 1.5,13.4479167 2.125,13.15625 C3.52083333,12.53125 4.859375,12.0625 6.140625,11.75 C7.421875,11.4375 8.70833333,11.28125 10,11.28125 C11.2916667,11.28125 12.5729167,11.4427083 13.84375,11.765625 C15.1145833,12.0885417 16.4479167,12.5520833 17.84375,13.15625 C18.4895833,13.4479167 19.0104167,13.875 19.40625,14.4375 C19.8020833,15 20,15.6770833 20,16.46875 L20,19.40625 L0,19.40625 Z" id="Shape" fill="#FFFFFF" fill-rule="nonzero"></path>
                </g>
            </g>
        </g>
    </g>
</svg>