<?xml version="1.0" encoding="UTF-8"?>
<svg width="20px" height="20px" viewBox="0 0 20 20" version="1.1" xmlns="http://www.w3.org/2000/svg" xmlns:xlink="http://www.w3.org/1999/xlink">
    <title>annotation-icon</title>
    <g id="Desktop-UI" stroke="none" stroke-width="1" fill="none" fill-rule="evenodd">
        <g id="modal-contact-us" transform="translate(-558.000000, -376.000000)">
            <g id="modal-window" transform="translate(526.000000, 215.000000)">
                <g id="annotation-icon" transform="translate(32.000000, 161.000000)">
                    <rect id="Rectangle" x="0" y="0" width="20" height="20"></rect>
                    <path d="M1.5,18 C1.1,18 0.75,17.85 0.45,17.55 C0.15,17.25 0,16.9 0,16.5 L0,3.5 C0,3.1 0.15,2.75 0.45,2.45 C0.75,2.15 1.1,2 1.5,2 L18.5,2 C18.9,2 19.25,2.15 19.55,2.45 C19.85,2.75 20,3.1 20,3.5 L20,16.5 C20,16.9 19.85,17.25 19.55,17.55 C19.25,17.85 18.9,18 18.5,18 L1.5,18 Z M10,10.45 L18.5,4.875 L18.5,3.5 L10,8.95 L1.5,3.5 L1.5,4.875 L10,10.45 Z" id="Shape" fill="#FFFFFF" fill-rule="nonzero"></path>
                </g>
            </g>
        </g>
    </g>
</svg>