<?xml version="1.0" encoding="UTF-8"?>
<svg width="20px" height="20px" viewBox="0 0 20 20" version="1.1" xmlns="http://www.w3.org/2000/svg" xmlns:xlink="http://www.w3.org/1999/xlink">
    <title>image-icon</title>
    <g id="Desktop-UI" stroke="none" stroke-width="1" fill="none" fill-rule="evenodd">
        <g id="Select-data-sources-on-app-launch" transform="translate(-558.000000, -407.000000)">
            <g id="modal-window" transform="translate(526.000000, 305.000000)">
                <g id="Import-images-row" transform="translate(32.000000, 94.000000)">
                    <g id="image-icon" transform="translate(0.000000, 8.000000)">
                        <path d="M4.09090909,15.5454545 C3.72727273,15.5454545 3.40909091,15.4090909 3.13636364,15.1363636 C2.86363636,14.8636364 2.72727273,14.5454545 2.72727273,14.1818182 L2.72727273,2.36363636 C2.72727273,2 2.86363636,1.68181818 3.13636364,1.40909091 C3.40909091,1.13636364 3.72727273,1 4.09090909,1 L9.65909091,1 L11.0227273,2.36363636 L18.6363636,2.36363636 C19,2.36363636 19.3181818,2.5 19.5909091,2.77272727 C19.8636364,3.04545455 20,3.36363636 20,3.72727273 L20,14.1818182 C20,14.5454545 19.8636364,14.8636364 19.5909091,15.1363636 C19.3181818,15.4090909 19,15.5454545 18.6363636,15.5454545 L4.09090909,15.5454545 Z M4.09090909,14.1818182 L18.6363636,14.1818182 L18.6363636,3.72727273 L10.4545455,3.72727273 L9.09090909,2.36363636 L4.09090909,2.36363636 L4.09090909,14.1818182 Z M17.5,18.2727273 L1.36363636,18.2727273 C1,18.2727273 0.681818182,18.1363636 0.409090909,17.8636364 C0.136363636,17.5909091 0,17.2727273 0,16.9090909 L0,3.72727273 L1.36363636,3.72727273 L1.36363636,16.9090909 L17.5,16.9090909 L17.5,18.2727273 Z M6.68181818,11.6590909 L16.0454545,11.6590909 L13.0454545,7.65909091 L10.5454545,10.9772727 L8.75,9.02272727 L6.68181818,11.6590909 Z M4.09090909,14.1818182 L4.09090909,2.36363636 L4.09090909,14.1818182 Z" id="Shape" fill="#FFFFFF" fill-rule="nonzero"></path>
                        <rect id="Rectangle" x="0" y="0" width="20" height="20"></rect>
                    </g>
                </g>
            </g>
        </g>
    </g>
</svg>