<?xml version="1.0" encoding="UTF-8"?>
<svg width="32px" height="32px" viewBox="0 0 32 32" version="1.1" xmlns="http://www.w3.org/2000/svg" xmlns:xlink="http://www.w3.org/1999/xlink">
    <title>ic_connection</title>
    <g id="ic_connection" stroke="none" stroke-width="1" fill="none" fill-rule="evenodd">
        <g id="cloud_queue-24px" transform="translate(1.000000, 1.000000)">
            <polygon id="Path" points="0 0 30 0 30 30 0 30"></polygon>
            <path d="M24.1875,12.55 C23.3375,8.2375 19.55,5 15,5 C11.3875,5 8.25,7.05 6.6875,10.05 C2.925,10.45 0,13.6375 0,17.5 C0,21.6375 3.3625,25 7.5,25 L23.75,25 C27.2,25 30,22.2 30,18.75 C30,15.45 27.4375,12.775 24.1875,12.55 Z M23.75,22.5 L7.5,22.5 C4.7375,22.5 2.5,20.2625 2.5,17.5 C2.5,14.7375 4.7375,12.5 7.5,12.5 L8.3875,12.5 C9.2125,9.6125 11.85,7.5 15,7.5 C18.8,7.5 21.875,10.575 21.875,14.375 L21.875,15 L23.75,15 C25.825,15 27.5,16.675 27.5,18.75 C27.5,20.825 25.825,22.5 23.75,22.5 Z" id="Shape" fill="#FFFFFF" fill-rule="nonzero"></path>
        </g>
    </g>
</svg>