<?xml version="1.0" encoding="UTF-8"?>
<svg width="32px" height="32px" viewBox="0 0 32 32" version="1.1" xmlns="http://www.w3.org/2000/svg" xmlns:xlink="http://www.w3.org/1999/xlink">
    <title>ic_no_connection</title>
    <g id="ic_no_connection" stroke="none" stroke-width="1" fill="none" fill-rule="evenodd">
        <rect fill="#000000" x="0" y="0" width="32" height="32"></rect>
        <g id="cloud_off-24px" transform="translate(1.000000, 1.000000)">
            <polygon id="Path" points="0 0 30 0 30 30 0 30"></polygon>
            <path d="M24.1875,12.55 C23.3375,8.2375 19.55,5 15,5 C13.15,5 11.4375,5.5375 9.9875,6.4625 L11.8125,8.2875 C12.7625,7.7875 13.85,7.5 15,7.5 C18.8,7.5 21.875,10.575 21.875,14.375 L21.875,15 L23.75,15 C25.825,15 27.5,16.675 27.5,18.75 C27.5,20.1625 26.7,21.3875 25.55,22.025 L27.3625,23.8375 C28.95,22.7 30,20.85 30,18.75 C30,15.45 27.4375,12.775 24.1875,12.55 Z M3.75,6.5875 L7.1875,10.0125 C3.2,10.1875 0,13.4625 0,17.5 C0,21.6375 3.3625,25 7.5,25 L22.1625,25 L24.6625,27.5 L26.25,25.9125 L5.3375,5 L3.75,6.5875 Z M9.6625,12.5 L19.6625,22.5 L7.5,22.5 C4.7375,22.5 2.5,20.2625 2.5,17.5 C2.5,14.7375 4.7375,12.5 7.5,12.5 L9.6625,12.5 Z" id="Shape" fill="#FFFFFF" fill-rule="nonzero"></path>
        </g>
    </g>
</svg>