<?xml version="1.0" encoding="UTF-8"?>
<svg width="20px" height="20px" viewBox="0 0 20 20" version="1.1" xmlns="http://www.w3.org/2000/svg" xmlns:xlink="http://www.w3.org/1999/xlink">
    <title>annotation-icon</title>
    <g id="Desktop-UI" stroke="none" stroke-width="1" fill="none" fill-rule="evenodd">
        <g id="modal-contact-us" transform="translate(-558.000000, -495.000000)">
            <g id="modal-window" transform="translate(526.000000, 215.000000)">
                <g id="annotation-icon" transform="translate(32.000000, 280.000000)">
                    <rect id="Rectangle" x="0" y="0" width="20" height="20"></rect>
                    <path d="M7.85,18.225 C7.41666667,17.5583333 7.05833333,16.8708333 6.775,16.1625 C6.49166667,15.4541667 6.25833333,14.65 6.075,13.75 L2.3,13.75 C2.88333333,14.9166667 3.64166667,15.875 4.575,16.625 C5.50833333,17.375 6.6,17.9083333 7.85,18.225 Z M1.8,12.25 L5.8,12.25 C5.75,11.85 5.71666667,11.4875 5.7,11.1625 C5.68333333,10.8375 5.675,10.4666667 5.675,10.05 C5.675,9.7 5.67916667,9.34583333 5.6875,8.9875 C5.69583333,8.62916667 5.725,8.225 5.775,7.775 L1.8,7.775 C1.68333333,8.175 1.60416667,8.54583333 1.5625,8.8875 C1.52083333,9.22916667 1.5,9.61666667 1.5,10.05 C1.5,10.4833333 1.52083333,10.8583333 1.5625,11.175 C1.60416667,11.4916667 1.68333333,11.85 1.8,12.25 Z M2.3,6.275 L6.05,6.275 C6.25,5.35833333 6.5,4.53333333 6.8,3.8 C7.1,3.06666667 7.45833333,2.38333333 7.875,1.75 C6.45833333,2.23333333 5.33333333,2.8125 4.5,3.4875 C3.66666667,4.1625 2.93333333,5.09166667 2.3,6.275 Z M7.6,6.275 L12.425,6.275 C12.175,5.20833333 11.8541667,4.2875 11.4625,3.5125 C11.0708333,2.7375 10.5833333,2.05 10,1.45 C9.41666667,2.06666667 8.92916667,2.775 8.5375,3.575 C8.14583333,4.375 7.83333333,5.275 7.6,6.275 Z M13.975,6.275 L17.7,6.275 C17.1166667,5.19166667 16.3458333,4.26666667 15.3875,3.5 C14.4291667,2.73333333 13.35,2.15833333 12.15,1.775 C12.5666667,2.40833333 12.9208333,3.09166667 13.2125,3.825 C13.5041667,4.55833333 13.7583333,5.375 13.975,6.275 L13.975,6.275 Z M10,20 C8.6,20 7.29166667,19.7458333 6.075,19.2375 C4.85833333,18.7291667 3.8,18.025 2.9,17.125 C2,16.225 1.29166667,15.1708333 0.775,13.9625 C0.258333333,12.7541667 0,11.45 0,10.05 C0,8.65 0.258333333,7.3375 0.775,6.1125 C1.29166667,4.8875 2,3.825 2.9,2.925 C3.8,2.025 4.85833333,1.3125 6.075,0.7875 C7.29166667,0.2625 8.6,0 10,0 C11.4,0 12.7083333,0.2625 13.925,0.7875 C15.1416667,1.3125 16.2,2.025 17.1,2.925 C18,3.825 18.7083333,4.8875 19.225,6.1125 C19.7416667,7.3375 20,8.65 20,10.05 C20,10.3333333 19.9916667,10.6166667 19.975,10.9 C19.9583333,11.1833333 19.925,11.4666667 19.875,11.75 L18.325,11.75 C18.3916667,11.4666667 18.4375,11.1958333 18.4625,10.9375 C18.4875,10.6791667 18.5,10.3833333 18.5,10.05 C18.5,9.61666667 18.4791667,9.22916667 18.4375,8.8875 C18.3958333,8.54583333 18.3166667,8.175 18.2,7.775 L14.2,7.775 C14.25,8.275 14.2875,8.6875 14.3125,9.0125 C14.3375,9.3375 14.35,9.68333333 14.35,10.05 C14.35,10.2833333 14.3458333,10.5208333 14.3375,10.7625 C14.3291667,11.0041667 14.3083333,11.3333333 14.275,11.75 L12.75,11.75 C12.7833333,11.4 12.8083333,11.1 12.825,10.85 C12.8416667,10.6 12.85,10.3333333 12.85,10.05 C12.85,9.7 12.8416667,9.3625 12.825,9.0375 C12.8083333,8.7125 12.7666667,8.29166667 12.7,7.775 L7.325,7.775 C7.25833333,8.29166667 7.21666667,8.7125 7.2,9.0375 C7.18333333,9.3625 7.175,9.7 7.175,10.05 C7.175,10.3833333 7.18333333,10.7041667 7.2,11.0125 C7.21666667,11.3208333 7.25833333,11.7333333 7.325,12.25 L11.75,12.25 L11.75,13.75 L7.6,13.75 C7.93333333,15 8.28333333,15.9916667 8.65,16.725 C9.01666667,17.4583333 9.46666667,18.05 10,18.5 C10.35,18.1333333 10.6708333,17.725 10.9625,17.275 C11.2541667,16.825 11.5166667,16.3583333 11.75,15.875 L11.75,19.85 C11.4666667,19.9 11.1791667,19.9375 10.8875,19.9625 C10.5958333,19.9875 10.3,20 10,20 Z M17.95,19.025 L14.75,15.825 L14.75,18.4 L13.25,18.4 L13.25,13.25 L18.4,13.25 L18.4,14.75 L15.8,14.75 L19,17.95 L17.95,19.025 Z" id="Shape" fill="#FFFFFF" fill-rule="nonzero"></path>
                </g>
            </g>
        </g>
    </g>
</svg>