<?xml version="1.0" encoding="UTF-8"?>
<svg width="20px" height="20px" viewBox="0 0 20 20" version="1.1" xmlns="http://www.w3.org/2000/svg" xmlns:xlink="http://www.w3.org/1999/xlink">
    <title>Shape</title>
    <g id="Desktop-UI" stroke="none" stroke-width="1" fill="none" fill-rule="evenodd">
        <g id="Select-data-sources-on-app-launch-importing-data-Copy" transform="translate(-923.000000, -584.000000)" fill="#FFFFFF" fill-rule="nonzero">
            <g id="modal-window" transform="translate(526.000000, 305.000000)">
                <g id="confirm-data-import-btn" transform="translate(188.000000, 264.000000)">
                    <g id="Group-2" transform="translate(64.000000, 13.000000)">
                        <path d="M153.525,16.55 L160.6,9.475 L159.45,8.35 L153.525,14.275 L150.525,11.275 L149.4,12.4 L153.525,16.55 Z M155,22 C153.633333,22 152.341667,21.7375 151.125,21.2125 C149.908333,20.6875 148.845833,19.9708333 147.9375,19.0625 C147.029167,18.1541667 146.3125,17.0916667 145.7875,15.875 C145.2625,14.6583333 145,13.3666667 145,12 C145,10.6166667 145.2625,9.31666667 145.7875,8.1 C146.3125,6.88333333 147.029167,5.825 147.9375,4.925 C148.845833,4.025 149.908333,3.3125 151.125,2.7875 C152.341667,2.2625 153.633333,2 155,2 C156.383333,2 157.683333,2.2625 158.9,2.7875 C160.116667,3.3125 161.175,4.025 162.075,4.925 C162.975,5.825 163.6875,6.88333333 164.2125,8.1 C164.7375,9.31666667 165,10.6166667 165,12 C165,13.3666667 164.7375,14.6583333 164.2125,15.875 C163.6875,17.0916667 162.975,18.1541667 162.075,19.0625 C161.175,19.9708333 160.116667,20.6875 158.9,21.2125 C157.683333,21.7375 156.383333,22 155,22 Z M155,20.5 C157.366667,20.5 159.375,19.6708333 161.025,18.0125 C162.675,16.3541667 163.5,14.35 163.5,12 C163.5,9.63333333 162.675,7.625 161.025,5.975 C159.375,4.325 157.366667,3.5 155,3.5 C152.65,3.5 150.645833,4.325 148.9875,5.975 C147.329167,7.625 146.5,9.63333333 146.5,12 C146.5,14.35 147.329167,16.3541667 148.9875,18.0125 C150.645833,19.6708333 152.65,20.5 155,20.5 Z" id="Shape"></path>
                    </g>
                </g>
            </g>
        </g>
    </g>
</svg>