<?xml version="1.0" encoding="UTF-8"?>
<svg width="20px" height="20px" viewBox="0 0 20 20" version="1.1" xmlns="http://www.w3.org/2000/svg" xmlns:xlink="http://www.w3.org/1999/xlink">
    <title>loading-spinner</title>
    <g id="Desktop-UI" stroke="none" stroke-width="1" fill="none" fill-rule="evenodd">
        <g id="Select-data-sources-on-app-launch-importing-data" transform="translate(-927.000000, -584.000000)" fill="#FFFFFF">
            <g id="modal-window" transform="translate(526.000000, 305.000000)">
                <g id="confirm-data-import-btn" transform="translate(188.000000, 264.000000)">
                    <g id="Group-6-Copy" transform="translate(61.000000, 13.000000)">
                        <g id="loading-spinner" transform="translate(152.000000, 2.000000)">
                            <path d="M10,0 C15.5228475,0 20,4.4771525 20,10 C20,15.5228475 15.5228475,20 10,20 C4.4771525,20 0,15.5228475 0,10 C0,4.4771525 4.4771525,0 10,0 Z M10,2.5 C5.85786438,2.5 2.5,5.85786438 2.5,10 C2.5,14.1421356 5.85786438,17.5 10,17.5 C14.1421356,17.5 17.5,14.1421356 17.5,10 C17.5,5.85786438 14.1421356,2.5 10,2.5 Z" id="Shape" opacity="0.5"></path>
                            <path d="M10,0 C10.3067869,0 10.6103471,0.013814953 10.9100926,0.040856693 L10.9099628,2.55464321 C10.6116839,2.51856713 10.3080103,2.5 10,2.5 C5.85786438,2.5 2.5,5.85786438 2.5,10 C2.5,14.1421356 5.85786438,17.5 10,17.5 C13.5149296,17.5 16.4651162,15.0820473 17.2779647,11.8187369 L19.8349329,11.8191593 C18.9795301,16.4734356 14.9016017,20 10,20 C4.4771525,20 3.77879546e-13,15.5228475 3.77879546e-13,10 C3.77879546e-13,4.4771525 4.4771525,0 10,0 Z" id="Combined-Shape"></path>
                        </g>
                    </g>
                </g>
            </g>
        </g>
    </g>
</svg>